<svg width="64" height="64" viewBox="0 0 64 64" fill="none" xmlns="http://www.w3.org/2000/svg">
<path fill-rule="evenodd" clip-rule="evenodd" d="M60.0002 49.6C59.5591 49.6 59.2002 49.2411 59.2002 48.8C59.2002 48.3588 59.5591 48 60.0002 48C60.4413 48 60.8002 48.3588 60.8002 48.8C60.8002 49.2411 60.4413 49.6 60.0002 49.6Z" fill="#ECECFE"/>
<path fill-rule="evenodd" clip-rule="evenodd" d="M2.4001 43.2001C1.95898 43.2001 1.6001 42.8412 1.6001 42.4001C1.6001 41.9589 1.95898 41.6001 2.4001 41.6001C2.84122 41.6001 3.2001 41.9589 3.2001 42.4001C3.2001 42.8412 2.84122 43.2001 2.4001 43.2001Z" fill="#ECECFE"/>
<path fill-rule="evenodd" clip-rule="evenodd" d="M44.0002 3.2001C43.5591 3.2001 43.2002 2.84122 43.2002 2.4001C43.2002 1.95894 43.5591 1.6001 44.0002 1.6001C44.4413 1.6001 44.8002 1.95894 44.8002 2.4001C44.8002 2.84122 44.4413 3.2001 44.0002 3.2001Z" fill="#ECECFE"/>
<path d="M38.4298 37.3854C38.5504 36.9597 38.9991 36.7107 39.4321 36.8293C41.3363 37.3504 42.796 38.8183 43.1825 40.6385C43.2743 41.071 42.992 41.4948 42.552 41.585C42.112 41.6754 41.6809 41.3979 41.5891 40.9654C41.3298 39.7442 40.3259 38.7347 38.9956 38.3706C38.5625 38.2521 38.3092 37.811 38.4298 37.3854Z" fill="#E1000F"/>
<path fill-rule="evenodd" clip-rule="evenodd" d="M30.4 41.5999C30.4 37.1877 33.988 33.5999 38.4 33.5999C42.8119 33.5999 46.4 37.1877 46.4 41.5999C46.4 43.6528 45.6231 45.5273 44.3479 46.945L49.064 55.1137C49.7268 56.2617 49.3335 57.7295 48.1856 58.3922C47.0787 59.0313 45.6743 58.6884 44.9812 57.6338L44.9071 57.5137L40.2179 49.3917C39.6336 49.5279 39.0251 49.5999 38.4 49.5999C33.988 49.5999 30.4 46.0118 30.4 41.5999ZM41.7587 48.8605L46.2928 56.7137C46.5137 57.0964 47.003 57.2275 47.3856 57.0065C47.7409 56.8014 47.8793 56.3649 47.7204 55.9973L47.6784 55.9137L43.1352 48.0447C42.7068 48.3603 42.246 48.6342 41.7587 48.8605ZM44.7999 41.5999C44.7999 38.0714 41.9284 35.1999 38.4 35.1999C34.8716 35.1999 32 38.0714 32 41.5999C32 45.1281 34.8717 47.9999 38.4 47.9999C41.9282 47.9999 44.7999 45.1281 44.7999 41.5999Z" fill="#E1000F"/>
<path d="M32.8 14.3999C33.2418 14.3999 33.6 14.7581 33.6 15.1999C33.6 15.6101 33.2912 15.9483 32.8932 15.9945L32.8 15.9999H20C19.5581 15.9999 19.2 15.6417 19.2 15.1999C19.2 14.7897 19.5088 14.4515 19.9067 14.4053L20 14.3999H32.8Z" fill="#E1000F"/>
<path d="M40.7999 19.1999C41.2418 19.1999 41.5999 19.5581 41.5999 19.9999C41.5999 20.4101 41.2911 20.7483 40.8932 20.7945L40.7999 20.7999H20C19.5581 20.7999 19.2 20.4417 19.2 19.9999C19.2 19.5897 19.5088 19.2515 19.9067 19.2053L20 19.1999H40.7999Z" fill="#E1000F"/>
<path d="M36.7999 24.7999C36.7999 24.3581 36.4418 23.9999 36 23.9999H20L19.9067 24.0053C19.5088 24.0515 19.2 24.3897 19.2 24.7999C19.2 25.2417 19.5581 25.5999 20 25.5999H36L36.0932 25.5945C36.4911 25.5483 36.7999 25.2101 36.7999 24.7999Z" fill="#E1000F"/>
<path d="M15.1999 9.6001H45.5999C46.0417 9.6001 46.3999 9.95826 46.3999 10.4001L46.3928 33.6019C46.4166 34.6863 44.8141 34.6986 44.7887 33.5959L44.7999 11.2001H15.9999V52.8001H37.216C38.7999 52.8001 37.1999 52.8001 39.9923 52.8023C41.0771 52.8031 41.0731 54.3939 39.997 54.3941L15.1999 54.4001C14.7581 54.4001 14.3999 54.0419 14.3999 53.6001V10.4001C14.3999 9.95826 14.7581 9.6001 15.1999 9.6001Z" fill="#000091"/>
<path d="M41.587 55.997L21.5994 56.0001L21.5062 56.0055C21.1086 56.0517 20.7999 56.3899 20.7999 56.8001C20.7999 57.2419 21.1578 57.6001 21.5994 57.6001L41.5816 57.5667C42.6686 57.5932 42.6749 55.9931 41.587 55.997Z" fill="#000091"/>
<path d="M49.5999 48.8107V16.8001L49.5946 16.7068C49.5483 16.3089 49.2102 16.0001 48.7999 16.0001L48.7066 16.0055C48.3088 16.0517 47.9999 16.3899 47.9999 16.8001V48.1705C47.9999 48.8001 47.9911 48.1706 47.9999 48.8001C48.0149 49.8715 49.6093 49.8624 49.5999 48.8107Z" fill="#000091"/>
<path d="M30.3637 48.0204C31.4931 48.0281 31.4583 49.6074 30.3813 49.6014L19.9974 49.6001C19.5569 49.6001 19.1999 49.2419 19.1999 48.8001C19.1999 48.3899 19.5078 48.0517 19.9044 48.0055L19.9974 48.0001L30.3637 48.0204Z" fill="#000091"/>
<path d="M27.9874 43.2091C29.1108 43.1871 29.0299 44.7886 27.9874 44.8015L19.999 44.8001C19.5577 44.8001 19.1999 44.4419 19.1999 44.0001C19.1999 43.5899 19.5084 43.2517 19.9058 43.2055L19.999 43.2001L27.9874 43.2091Z" fill="#000091"/>
<path d="M27.9803 38.3977C29.0964 38.4067 29.0464 39.9925 27.9899 39.9977L19.9974 39.9863C19.557 39.9863 19.1999 39.6312 19.1999 39.1932C19.1999 38.7865 19.5078 38.4512 19.9044 38.4054L19.9974 38.4001L27.9803 38.3977Z" fill="#000091"/>
<path d="M30.4097 33.618C31.4915 33.6287 31.4472 35.2183 30.4027 35.1999L19.9999 35.1916C19.5581 35.1916 19.1999 34.8353 19.1999 34.3958C19.1999 33.9878 19.5088 33.6514 19.9066 33.6054L19.9999 33.6001L30.4097 33.618Z" fill="#000091"/>
<path d="M40.7999 28.8001C41.2417 28.8001 41.5999 29.1583 41.5999 29.6001C41.5999 30.0103 41.2911 30.3485 40.8932 30.3947L40.7999 30.4001H19.9999C19.5581 30.4001 19.1999 30.0419 19.1999 29.6001C19.1999 29.1899 19.5088 28.8517 19.9066 28.8055L19.9999 28.8001H40.7999Z" fill="#000091"/>
</svg>
