<svg width="156" height="156" viewBox="0 0 156 156" fill="none" xmlns="http://www.w3.org/2000/svg">
<path fill-rule="evenodd" clip-rule="evenodd" d="M37.05 140.4C35.9747 140.4 35.1 139.525 35.1 138.45C35.1 137.375 35.9747 136.5 37.05 136.5C38.1252 136.5 39 137.375 39 138.45C39 139.525 38.1252 140.4 37.05 140.4Z" fill="#CACAFB"/>
<path fill-rule="evenodd" clip-rule="evenodd" d="M60.45 19.5001C59.3748 19.5001 58.5 18.6253 58.5 17.5501C58.5 16.4748 59.3748 15.6001 60.45 15.6001C61.5252 15.6001 62.4 16.4748 62.4 17.5501C62.4 18.6253 61.5252 19.5001 60.45 19.5001Z" fill="#CACAFB"/>
<path fill-rule="evenodd" clip-rule="evenodd" d="M130.65 128.7C129.575 128.7 128.7 127.825 128.7 126.75C128.7 125.674 129.575 124.8 130.65 124.8C131.725 124.8 132.6 125.674 132.6 126.75C132.6 127.825 131.725 128.7 130.65 128.7Z" fill="#CACAFB"/>
<path fill-rule="evenodd" clip-rule="evenodd" d="M130.65 31.1998C129.575 31.1998 128.7 30.325 128.7 29.2498C128.7 28.1745 129.575 27.2998 130.65 27.2998C131.725 27.2998 132.6 28.1745 132.6 29.2498C132.6 30.325 131.725 31.1998 130.65 31.1998Z" fill="#CACAFB"/>
<path fill-rule="evenodd" clip-rule="evenodd" d="M17.55 62.4C16.4747 62.4 15.6 61.5252 15.6 60.45C15.6 59.3747 16.4747 58.5 17.55 58.5C18.6252 58.5 19.5 59.3747 19.5 60.45C19.5 61.5252 18.6252 62.4 17.55 62.4Z" fill="#CACAFB"/>
<path d="M71.8887 60.5201C72.4272 59.5875 72.1076 58.3949 71.1749 57.8564C66.5175 55.1674 60.5453 56.7675 57.8562 61.4251C55.1673 66.0825 56.7676 72.0549 61.4249 74.7439C66.0823 77.4328 72.0547 75.8325 74.7437 71.1751C75.2822 70.2425 74.9626 69.0499 74.0299 68.5114C73.0973 67.9729 71.9047 68.2925 71.3662 69.2251L71.186 69.5172C69.499 72.0825 66.0673 72.9208 63.3749 71.3664C60.5829 69.7544 59.6217 66.1672 61.2337 63.3751C62.8458 60.5829 66.4328 59.6218 69.2249 61.2339C70.1576 61.7724 71.3502 61.4528 71.8887 60.5201Z" fill="#E1000F"/>
<path d="M93.7516 104.347C93.401 105.365 93.9422 106.475 94.9605 106.825C99.0288 108.226 103.474 106.058 104.875 101.99C106.276 97.9213 104.108 93.4759 100.039 92.0751C95.9711 90.6743 91.5257 92.8425 90.1249 96.9107C89.7743 97.929 90.3155 99.0387 91.3338 99.3893C92.3521 99.7399 93.4618 99.1987 93.8124 98.1804L93.9171 97.9093C94.7139 96.0537 96.8303 95.0949 98.7697 95.7626C100.801 96.4622 101.887 98.6882 101.187 100.72C100.488 102.752 98.262 103.837 96.2302 103.138C95.2119 102.787 94.1022 103.328 93.7516 104.347Z" fill="#E1000F"/>
<path d="M60.9252 101.4C59.9252 101.4 59.101 100.647 58.9883 99.6773L58.9752 99.4499L58.976 97.4643L58.967 97.1203C58.8691 95.5583 57.9089 94.1772 56.4188 93.5041L56.0915 93.3709L55.1078 92.957L54.6034 92.7321C53.1156 92.0435 51.3563 92.2983 50.1064 93.3634L49.8467 93.604L48.2682 95.1734L47.9617 95.4178C46.8006 96.2169 45.249 96.1413 44.1648 95.2477L43.9399 95.0437L38.5954 89.6712L38.3516 89.3644C37.5562 88.2049 37.6288 86.6567 38.5168 85.5703L38.7195 85.3449L40.1192 83.9405L40.3669 83.6782C41.4607 82.4267 41.7194 80.6205 41.0038 79.0762C40.8507 78.7383 40.7008 78.388 40.5616 78.0437L40.2377 77.2229C39.6206 75.8278 38.2521 74.8732 36.7099 74.7547L36.3769 74.7422L34.1907 74.7358L33.8388 74.7009C32.4178 74.4684 31.3418 73.2997 31.2128 71.8779L31.1998 71.5904L31.2061 64.0048L31.2408 63.6533C31.4719 62.2317 32.638 61.1519 34.0603 61.0224L34.348 61.0094L36.327 61.0103L36.6695 61.0012C38.2223 60.9033 39.5975 59.9413 40.2687 58.4458L40.4016 58.1172L40.8141 57.1308L41.0407 56.6199C41.7348 55.1224 41.472 53.3359 40.3867 52.0748L40.1587 51.8298L38.6034 50.2559L38.36 49.9488C37.5662 48.7885 37.6411 47.2401 38.5297 46.156L38.7326 45.9311L44.0897 40.5696L44.396 40.325C45.5563 39.5252 47.1074 39.599 48.1942 40.4919L48.4197 40.6958L49.8162 42.0962L50.0787 42.3446C51.3277 43.4393 53.116 43.698 54.6454 42.9887C54.987 42.833 55.3379 42.6818 55.6822 42.5417L56.5014 42.2165C57.8913 41.5979 58.8443 40.2231 58.9627 38.6717L58.9752 38.3368L58.9815 36.1453L59.0162 35.7938C59.2473 34.3722 60.4134 33.2924 61.8357 33.1629L62.1233 33.1499L69.6874 33.1563L70.0393 33.1912C71.4603 33.4237 72.5363 34.5924 72.6653 36.0142L72.6783 36.3017L72.6773 38.2837L72.6871 38.6302C72.7885 40.202 73.7562 41.585 75.2639 42.2565L75.5951 42.3894L76.5559 42.7949L77.0593 43.0195C78.5472 43.7081 80.3064 43.4533 81.5563 42.3882L81.816 42.1476L83.3945 40.5782L83.701 40.3338C84.8621 39.5346 86.4137 39.6103 87.4979 40.5039L87.7228 40.7079L93.0697 46.0832L93.3124 46.3901C94.1033 47.549 94.0269 49.0959 93.14 50.1784L92.9376 50.403L91.5343 51.8111L91.2866 52.0734C90.1927 53.3249 89.934 55.1311 90.6496 56.6754C90.8028 57.0133 90.9526 57.3636 91.0918 57.7079L91.4157 58.5286C92.0328 59.9238 93.4013 60.8783 94.9436 60.9969L95.2765 61.0094L97.4628 61.0158L97.6571 61.0315C98.7306 61.1184 99.5303 62.059 99.4435 63.1324C99.3628 64.1292 98.546 64.89 97.5703 64.9241L97.3425 64.9188L97.3055 64.9094L95.2801 64.9094C92.2022 64.915 89.3911 63.1776 88.0039 60.4274L87.8236 60.0461L87.6601 59.6391C87.5433 59.3317 87.4193 59.0248 87.2935 58.7305L87.1042 58.3002C85.8093 55.5059 86.2012 52.2312 88.1127 49.7979L88.3961 49.4561L88.7301 49.1012L89.6569 48.1727L85.4878 43.9919L84.5791 44.9C82.2714 47.2216 78.8092 47.9281 75.8319 46.7365L75.4464 46.5703L75.0045 46.3728L74.1829 46.0231C71.2532 44.979 69.1897 42.3584 68.8304 39.2443L68.7921 38.8167L68.7783 38.3447L68.7783 37.0499H62.8756L62.8752 38.3333C62.8808 41.4155 61.1501 44.2326 58.407 45.6244L58.0267 45.8052L57.6207 45.9694C57.3136 46.0868 57.0076 46.2112 56.7112 46.3388L56.2749 46.532C53.4883 47.8244 50.228 47.4297 47.799 45.5156L47.4578 45.2319L47.1005 44.8946L46.1875 43.9802L42.0145 48.1649L42.9153 49.071C45.2426 51.3846 45.9518 54.8668 44.7592 57.8443L44.5928 58.2296L44.3964 58.672L44.0355 59.5296C42.9834 62.4506 40.3715 64.5056 37.2751 64.8589L36.85 64.8965L36.3848 64.9094L35.0998 64.9096V70.8434L36.3734 70.8422C39.4512 70.8366 42.2623 72.574 43.6496 75.3242L43.8298 75.7055L43.9934 76.1125C44.1102 76.4199 44.2342 76.7268 44.3599 77.021L44.5492 77.4514C45.8442 80.2457 45.4522 83.5204 43.5408 85.9537L43.2574 86.2955L42.9233 86.6504L42.0028 87.5783L46.1758 91.763L47.0837 90.8516C49.3913 88.53 52.8535 87.8235 55.8306 89.015L56.6569 89.3781L57.5113 89.7398C60.4253 90.7958 62.4731 93.4142 62.8249 96.5151L62.8623 96.9408L62.8756 97.4999H70.205L70.2062 96.4201L70.2375 96.1123C70.4485 94.8185 71.5071 93.8362 72.7992 93.711L73.0794 93.6975L74.6019 93.6983L74.8532 93.6919C75.8779 93.6275 76.7881 93.0044 77.2564 92.0103L77.6967 90.9585L77.8757 90.5564C78.3295 89.5802 78.171 88.4165 77.4808 87.5745L77.2794 87.3532L76.0454 86.1058L75.8325 85.8363C75.108 84.7806 75.1724 83.3738 75.975 82.3838L76.1733 82.1631L80.3592 77.989L80.4875 77.8826C81.3162 77.1947 82.5455 77.3089 83.2334 78.1375C83.8683 78.9025 83.8199 80.0088 83.1569 80.7155L82.9784 80.8835L82.9835 80.8683L79.6484 84.2065L80.0319 84.5903C81.9521 86.4934 82.5458 89.3533 81.5822 91.8056L81.2773 92.5037L81.0055 93.1462C80.138 95.5472 77.9947 97.2403 75.4398 97.55L75.0332 97.5873L74.6595 97.5975L74.1006 97.5991V101.304L74.6499 101.302C77.1845 101.298 79.5018 102.715 80.6659 104.975L80.84 105.339L80.9701 105.662C81.0585 105.894 81.1524 106.125 81.247 106.346L81.389 106.668C82.4565 108.965 82.1438 111.653 80.5801 113.671L80.308 114.001L80.0397 114.285L79.6386 114.687L82.9708 118.019C83.6737 118.722 83.7278 119.828 83.133 120.593L82.9708 120.777C82.2678 121.479 81.1617 121.534 80.3967 120.939L80.213 120.777L76.0396 116.591L75.8263 116.322C75.1004 115.267 75.1626 113.861 75.9647 112.869L76.163 112.647L77.2396 111.571L77.4214 111.379C78.1544 110.543 78.3279 109.335 77.8455 108.297C77.7241 108.03 77.6054 107.754 77.4961 107.484L77.2495 106.86C76.8443 105.947 75.9492 105.313 74.9332 105.216L74.6534 105.202L72.9226 105.196L72.6147 105.165C71.321 104.954 70.3386 103.895 70.2134 102.603L70.1999 102.323L70.2009 101.4H60.9252Z" fill="#000091"/>
<path d="M103.025 116.284C100.766 117.448 99.3483 119.765 99.3529 122.3L99.3545 122.85H95.6495L95.6479 122.29L95.6377 121.917L95.6004 121.51C95.2908 118.955 93.5977 116.812 91.1967 115.944L90.5541 115.672L90.2206 115.524L90.0075 115.443C89.0755 115.153 88.0529 115.6 87.6469 116.514C87.2097 117.498 87.6531 118.651 88.6373 119.088L89.009 119.253L90.0608 119.693C91.0548 120.162 91.678 121.072 91.7424 122.097L91.7488 122.348L91.7479 123.87L91.7614 124.151C91.8867 125.443 92.869 126.501 94.1628 126.712L94.4706 126.744L100.373 126.75L100.654 126.736C101.946 126.611 103.004 125.629 103.215 124.335L103.247 124.027L103.253 122.296L103.266 122.017C103.364 121.001 103.997 120.105 104.911 119.7L105.535 119.453C105.806 119.344 106.084 119.224 106.354 119.101C107.387 118.624 108.592 118.797 109.431 119.531L109.624 119.713L110.701 120.79L110.921 120.987C111.907 121.787 113.311 121.855 114.364 121.137L114.634 120.925L118.829 116.729L119.027 116.509C119.828 115.52 119.892 114.114 119.168 113.058L118.955 112.788L117.721 111.541L117.519 111.32C116.829 110.478 116.671 109.314 117.125 108.338C117.256 108.048 117.377 107.768 117.489 107.494L117.639 107.116L117.753 106.846C118.213 105.885 119.126 105.264 120.138 105.207L120.386 105.202L121.921 105.202L122.201 105.189C123.493 105.064 124.552 104.081 124.763 102.788L124.794 102.48L124.8 96.5769L124.787 96.2967C124.662 95.0046 123.679 93.946 122.386 93.735L122.078 93.7037L120.347 93.6974L120.067 93.6842C119.051 93.5866 118.156 92.9531 117.751 92.0398L117.504 91.4159C117.395 91.1463 117.276 90.8697 117.155 90.6028C116.672 89.5648 116.846 88.3568 117.579 87.5208L117.761 87.3293L118.84 86.2497L119.038 86.0293C119.839 85.0409 119.905 83.6355 119.183 82.5808L118.97 82.3114L114.794 78.1233L114.574 77.925C113.584 77.1224 112.177 77.058 111.121 77.7825L110.852 77.9955L109.597 79.2366L109.377 79.436C108.538 80.1194 107.378 80.2764 106.396 79.8233L106 79.6471L104.962 79.2134C103.954 78.7448 103.326 77.8333 103.259 76.8015L103.252 76.5484L103.253 75.0294L103.239 74.7492C103.114 73.4571 102.132 72.3985 100.838 72.1875L100.53 72.1562L94.6274 72.1499L94.3472 72.1634C93.0551 72.2886 91.9965 73.271 91.7855 74.5647L91.7542 74.8726L91.7479 76.6034L91.7348 76.8832C91.6371 77.8992 91.0036 78.7943 90.0903 79.1996L89.4654 79.4466C89.1951 79.5562 88.9173 79.6755 88.6468 79.7985C87.6664 80.2442 87.233 81.4003 87.6787 82.3807C88.1244 83.3611 89.2805 83.7945 90.2609 83.3488C90.5927 83.198 90.9398 83.0531 91.2887 82.9201L91.6117 82.79L91.9754 82.6159C94.2353 81.4518 95.6525 79.1346 95.6479 76.5999L95.6495 76.0499H99.3545L99.3529 76.6096L99.3639 76.9886L99.3997 77.3777C99.7094 79.9515 101.418 82.1052 103.838 82.965L104.452 83.2267L104.787 83.3759L105.152 83.5313C107.608 84.4895 110.454 83.901 112.356 81.9932L112.753 81.5976L115.366 84.2106L114.961 84.6152L114.692 84.8991L114.42 85.229C112.856 87.2467 112.544 89.9352 113.611 92.2316L113.894 92.8917L114.16 93.5611L114.334 93.9249C115.499 96.1848 117.816 97.602 120.35 97.5974L120.902 97.5974V101.302H120.341L119.982 101.31L119.596 101.343C117.039 101.632 114.876 103.322 113.995 105.726L113.871 106.038L113.733 106.366L113.581 106.708L113.424 107.075C112.454 109.541 113.048 112.401 114.968 114.304L115.354 114.691L112.741 117.314L112.335 116.91L112.048 116.64L111.718 116.368C109.701 114.809 107.022 114.496 104.729 115.556L104.231 115.773L103.389 116.11L103.025 116.284Z" fill="#000091"/>
<path d="M115.05 64.3499C113.973 64.3499 113.1 63.4769 113.1 62.3999C113.1 61.3999 113.853 60.5757 114.823 60.463L115.05 60.4499H122.85C123.927 60.4499 124.8 61.3229 124.8 62.3999C124.8 63.3999 124.047 64.2241 123.077 64.3368L122.85 64.3499H115.05Z" fill="#000091"/>
<path d="M109.2 62.3999C109.2 61.3247 108.325 60.4499 107.25 60.4499C106.175 60.4499 105.3 61.3247 105.3 62.3999C105.3 63.4752 106.175 64.3499 107.25 64.3499C108.325 64.3499 109.2 63.4752 109.2 62.3999Z" fill="#000091"/>
</svg>
